<svg xmlns="http://www.w3.org/2000/svg" viewBox="0 0 255.11 360.088">
  <path fill="#e44d26" d="m255.11 70.766-23.242 260.36-104.47 28.962-104.181-28.922L0 70.766z"/>
  <path fill="#f16529" d="m127.555 337.95 84.417-23.403 19.86-222.49H127.556z"/>
  <path fill="#ebebeb" d="M82.375 155.932h45.18v-31.937H47.472l.764 8.568 7.85 88.01h71.469v-31.937H85.294zM89.573 236.542h-32.06l4.474 50.146 65.42 18.16.148-.04V271.58l-.14.037-35.569-9.604-2.273-25.471z"/>
  <path fill="#fff" d="M127.444 220.573h39.327l-3.707 41.42-35.62 9.614v33.226l65.473-18.145.48-5.396 7.505-84.08.78-8.576h-74.238zM127.444 155.854v.078h77.144l.64-7.178 1.455-16.191.764-8.568h-80.003v31.86z"/>
</svg>
